<svg xmlns="http://www.w3.org/2000/svg" viewBox="0 0 60 40" role="img" aria-label="English">
  <rect width="60" height="40" fill="#1F3F8B"/>
  <polygon points="0,0 6,0 60,34 60,40 54,40 0,6" fill="#FFFFFF"/>
  <polygon points="60,0 54,0 0,34 0,40 6,40 60,6" fill="#FFFFFF"/>
  <polygon points="0,0 3,0 60,36 60,40 57,40 0,4" fill="#C8102E"/>
  <polygon points="60,0 57,0 0,36 0,40 3,40 60,4" fill="#C8102E"/>
  <rect x="24" width="12" height="40" fill="#FFFFFF"/>
  <rect y="14" width="60" height="12" fill="#FFFFFF"/>
  <rect x="26" width="8" height="40" fill="#C8102E"/>
  <rect y="16" width="60" height="8" fill="#C8102E"/>
</svg>
